<?xml version="1.0" encoding="UTF-8"?>
<svg width="111.12mm" height="187.53mm" version="1.1" viewBox="0 0 111.12 187.53" xmlns="http://www.w3.org/2000/svg" xmlns:cc="http://creativecommons.org/ns#" xmlns:dc="http://purl.org/dc/elements/1.1/" xmlns:osb="http://www.openswatchbook.org/uri/2009/osb" xmlns:rdf="http://www.w3.org/1999/02/22-rdf-syntax-ns#" xmlns:xlink="http://www.w3.org/1999/xlink">
 <defs>
  <linearGradient id="linearGradient1184" x1="858.23" x2="1221.6" y1="837.92" y2="267.22" gradientUnits="userSpaceOnUse">
   <stop stop-color="#e85d04" offset="0"/>
   <stop stop-color="#e85d04" stop-opacity="0" offset="1"/>
  </linearGradient>
 </defs>
 <metadata>
  <rdf:RDF>
   <cc:Work rdf:about="">
    <dc:format>image/svg+xml</dc:format>
    <dc:type rdf:resource="http://purl.org/dc/dcmitype/StillImage"/>
    <dc:title/>
   </cc:Work>
  </rdf:RDF>
 </metadata>
 <g transform="translate(-167.94 -76.469)">
  <path transform="scale(.26458)" d="m1004.3 289.02c0 1e-5 -13.434 2.6055-35.432 12.361-21.77 9.6549-52.739 27.348-82.016 58.941-18.772 20.148-37.111 46.657-48.596 79.957-2.2045 6.3884-4.0993 13.021-5.6445 19.85-17.155-22.137-37.324-37.092-54.094-45.883-29.428-15.37-48.902-15.709-48.902-15.709s17.406 8.9666 36.994 31.238c19.984 22.681 38.77 58.869 38.65 101.6-0.16706 29.638-9.6581 60.651-27.588 82.773-12.037 16.62-31.722 30.998-53.16 49.176-3.8103 3.2309-7.6917 6.5943-11.604 10.109-27.473 22.319-55.503 53.613-70.77 95.492-10.102 31.646-9.0909 62.902-1.498 89.83 8.3921 29.775 23.218 53.655 38.918 72.102 24.328 28.781 50.869 45.5 69.539 54.773 18.888 9.3817 30.535 12.162 30.535 12.162s-9.4028-7.5456-22.699-22.523c-13.364-15.054-29.865-37.4-41.857-66.67-7.5275-18.588-13.264-39.637-13.357-60.141-0.0438-18.309 3.5674-36.784 11.812-50.869 9.5204-19.898 31.722-36.302 55.715-57.451 3.8162-3.0117 7.7034-6.1188 11.643-9.3652 21.819-17.982 45.72-40.673 64.533-71.221 4.5825 4.471 9.1893 8.5566 13.656 12.311 2.4302 2.0423 4.8285 3.9969 7.1836 5.8926 14.794 13.296 28.503 23.63 34.305 36.061 5.0431 8.8084 7.1751 20.318 7.0391 31.703-0.18081 12.75-3.872 25.806-8.6641 37.32-7.6324 18.13-18.027 31.927-26.428 41.209-8.358 9.2347-14.252 13.871-14.252 13.871s7.2609-1.6596 19.062-7.3809c11.666-5.6553 28.27-15.894 43.57-33.646 9.8734-11.377 19.236-26.138 24.633-44.604 3.9223-13.416 5.2099-28.595 2.4102-44.279 9.579 10.891 17.96 21.693 24.244 33.117 19.098 31.885 25.677 72.572 21.125 109.43-6.6454 52.933-34.742 93.319-61.258 116.74-26.069 23.062-47.184 30.414-47.184 30.414s22.254 0.71215 56.428-15.141c34.129-15.88 80.512-52.475 102.39-118.36 15.54-46.564 16.197-103.71-7.8594-157.22-17.777-37.231-42.707-66.317-66.113-90.68-4.178-4.3488-8.3193-8.5595-12.404-12.689-25.864-28.365-50.286-52.781-59.693-80.846-6.674-16.789-8.8114-36.263-7.6172-55.475 1.8132-1.1373 2.9531-1.7402 2.9531-1.7402s-1.0548 0.0349-2.8496 0.25586c0.24947-3.5065 0.59342-7.0027 1.0566-10.469 3.4575-25.62 13.509-50.317 25.174-71.422 18.474-33.184 41.043-56.951 58.611-72.371 17.524-15.381 29.359-22.541 29.359-22.541z" fill="url(#linearGradient1184)"/>
 </g>
</svg>
