<?xml version="1.0" encoding="UTF-8"?>
<svg width="147.73mm" height="141.38mm" version="1.1" viewBox="0 0 147.73 141.38" xmlns="http://www.w3.org/2000/svg" xmlns:cc="http://creativecommons.org/ns#" xmlns:dc="http://purl.org/dc/elements/1.1/" xmlns:rdf="http://www.w3.org/1999/02/22-rdf-syntax-ns#">
 <metadata>
  <rdf:RDF>
   <cc:Work rdf:about="">
    <dc:format>image/svg+xml</dc:format>
    <dc:type rdf:resource="http://purl.org/dc/dcmitype/StillImage"/>
    <dc:title/>
   </cc:Work>
  </rdf:RDF>
 </metadata>
 <g transform="translate(40.79 -62.132)">
  <path d="m33.073 62.132c34.707 0 73.863 61.798 73.863 96.618s-32.059 44.759-73.863 44.759c-41.804 0-73.863-9.9397-73.863-44.759 0-34.82 39.157-96.618 73.863-96.618z" fill="#8b5e34" stroke-width=".26458"/>
  <g>
   <path transform="scale(.26458)" d="m-150.57 561.66c-2.3395 13.452-3.5996 26.327-3.5996 38.336 3e-5 131.6 121.17 169.17 279.17 169.17 158 1e-5 279.17-37.567 279.17-169.17 0-12.009-1.2602-24.884-3.5996-38.336-0.58533 2.8377-1.1888 5.6608-1.9141 8.3887-0.90545 3.4055-1.9201 6.7256-3.0391 9.9629-1.1189 3.2373-2.3426 6.3922-3.6699 9.4648-1.3273 3.0726-2.7586 6.0632-4.2891 8.9746s-3.1601 5.7426-4.8887 8.4961c-1.7285 2.7536-3.5551 5.4301-5.4766 8.0293-1.9214 2.5992-3.9377 5.122-6.0469 7.5703s-4.3117 4.8223-6.6035 7.123c-2.2918 2.3008-4.6733 4.5288-7.1426 6.6856-2.4693 2.1568-5.0264 4.2416-7.668 6.2578-2.6416 2.0162-5.367 3.9627-8.1758 5.8418-2.8088 1.879-5.7011 3.6902-8.6719 5.4356-2.9708 1.7454-6.0208 3.4259-9.1484 5.041-3.1276 1.6151-6.332 3.166-9.6113 4.6543-3.2794 1.4883-6.6327 2.9143-10.059 4.2793-6.8519 2.73-13.993 5.2154-21.4 7.4727-7.4073 2.2572-15.08 4.2855-23.002 6.0976-7.9215 1.8121-16.092 3.4082-24.486 4.8027s-17.015 2.5872-25.842 3.5918c-8.8264 1.0046-17.857 1.8208-27.074 2.4629-9.2172 0.64213-18.621 1.1107-28.188 1.418-9.5667 0.30728-19.297 0.45313-29.172 0.45313s-19.605-0.14585-29.172-0.45313-18.97-0.77583-28.188-1.418c-9.2171-0.64214-18.248-1.4583-27.074-2.4629-8.8265-1.0046-17.447-2.1972-25.842-3.5918-8.3946-1.3946-16.565-2.9906-24.486-4.8027-7.9215-1.8121-15.595-3.8404-23.002-6.0976-7.4073-2.2573-14.549-4.7427-21.4-7.4727-3.4259-1.365-6.7792-2.791-10.059-4.2793-3.2794-1.4883-6.4837-3.0392-9.6113-4.6543-3.1276-1.6151-6.1777-3.2957-9.1484-5.041s-5.8631-3.5565-8.6719-5.4356-5.5342-3.8256-8.1758-5.8418c-2.6416-2.0162-5.1987-4.101-7.668-6.2578-2.4693-2.1568-4.8508-4.3848-7.1426-6.6856-2.2918-2.3008-4.4943-4.6748-6.6035-7.123s-4.1254-4.9711-6.0469-7.5703c-1.9214-2.5992-3.748-5.2758-5.4766-8.0293-1.7285-2.7535-3.3582-5.5847-4.8887-8.4961s-2.9618-5.902-4.2891-8.9746-2.551-6.2275-3.6699-9.4648c-1.119-3.2373-2.1336-6.5574-3.0391-9.9629-0.72528-2.7278-1.3287-5.5509-1.9141-8.3887z" fill="#6f4518"/>
   <path transform="scale(.26458)" d="m-138.37 513.97c-5.3101 16.395-9.5506 32.456-12.201 47.697 0.58533 2.8377 1.1888 5.6608 1.9141 8.3887 0.90545 3.4055 1.9201 6.7256 3.0391 9.9629 1.1189 3.2373 2.3426 6.3922 3.6699 9.4648s2.7586 6.0632 4.2891 8.9746 3.1601 5.7426 4.8887 8.4961c1.7285 2.7536 3.5551 5.4301 5.4766 8.0293 1.9214 2.5992 3.9377 5.122 6.0469 7.5703s4.3117 4.8223 6.6035 7.123c2.2918 2.3008 4.6733 4.5288 7.1426 6.6856 2.4693 2.1568 5.0264 4.2416 7.668 6.2578 2.6416 2.0162 5.367 3.9627 8.1758 5.8418s5.7011 3.6902 8.6719 5.4356 6.0208 3.4259 9.1484 5.041c3.1276 1.6151 6.332 3.166 9.6113 4.6543 3.2794 1.4883 6.6327 2.9143 10.059 4.2793 6.8519 2.73 13.993 5.2154 21.4 7.4727 7.4073 2.2572 15.08 4.2855 23.002 6.0976 7.9215 1.8121 16.092 3.4082 24.486 4.8027 8.3946 1.3946 17.015 2.5872 25.842 3.5918 8.8265 1.0046 17.857 1.8208 27.074 2.4629 9.2171 0.64212 18.621 1.1107 28.188 1.418s19.297 0.45313 29.172 0.45313 19.605-0.14585 29.172-0.45313c9.5666-0.30728 18.97-0.77584 28.188-1.418 9.2171-0.64214 18.248-1.4583 27.074-2.4629 8.8265-1.0046 17.447-2.1972 25.842-3.5918s16.565-2.9906 24.486-4.8027c7.9215-1.8121 15.595-3.8404 23.002-6.0976 7.4073-2.2573 14.549-4.7427 21.4-7.4727 3.4259-1.365 6.7792-2.791 10.059-4.2793 3.2794-1.4883 6.4837-3.0392 9.6113-4.6543 3.1276-1.6151 6.1777-3.2956 9.1484-5.041 2.9708-1.7454 5.8631-3.5565 8.6719-5.4356 2.8087-1.879 5.5342-3.8256 8.1758-5.8418 2.6416-2.0162 5.1987-4.1011 7.668-6.2578 2.4693-2.1568 4.8508-4.3848 7.1426-6.6856 2.2918-2.3008 4.4943-4.6748 6.6035-7.123s4.1254-4.9711 6.0469-7.5703c1.9214-2.5992 3.748-5.2758 5.4766-8.0293 1.7285-2.7535 3.3582-5.5847 4.8887-8.4961s2.9618-5.902 4.2891-8.9746c1.3273-3.0726 2.551-6.2275 3.6699-9.4648 1.119-3.2373 2.1336-6.5574 3.0391-9.9629 0.72528-2.7278 1.3287-5.5509 1.9141-8.3887-2.6506-15.241-6.8911-31.302-12.201-47.697-0.24826 0.48715-0.45716 1.0055-0.71094 1.4883-1.5305 2.9114-3.1601 5.7426-4.8887 8.4961-1.7285 2.7536-3.5551 5.4301-5.4766 8.0293-1.9214 2.5992-3.9377 5.122-6.0469 7.5703s-4.3117 4.8223-6.6035 7.123c-2.2918 2.3008-4.6733 4.5288-7.1426 6.6856-2.4693 2.1568-5.0264 4.2416-7.668 6.2578-2.6416 2.0162-5.367 3.9627-8.1758 5.8418-2.8088 1.879-5.7011 3.6902-8.6719 5.4356-2.9708 1.7454-6.0208 3.4259-9.1484 5.041-3.1276 1.6151-6.332 3.166-9.6113 4.6543-3.2794 1.4883-6.6327 2.9143-10.059 4.2793-6.8519 2.73-13.993 5.2154-21.4 7.4727-7.4073 2.2572-15.08 4.2855-23.002 6.0976-7.9215 1.8121-16.092 3.4082-24.486 4.8027s-17.015 2.5872-25.842 3.5918c-8.8264 1.0046-17.857 1.8208-27.074 2.4629-9.2172 0.64213-18.621 1.1107-28.188 1.418-9.5667 0.30728-19.297 0.45313-29.172 0.45313s-19.605-0.14585-29.172-0.45313-18.97-0.77583-28.188-1.418c-9.2171-0.64214-18.248-1.4583-27.074-2.4629-8.8265-1.0046-17.447-2.1972-25.842-3.5918-8.3946-1.3946-16.565-2.9906-24.486-4.8027-7.9215-1.8121-15.595-3.8404-23.002-6.0976-7.4073-2.2573-14.549-4.7427-21.4-7.4727-3.4259-1.365-6.7792-2.791-10.059-4.2793-3.2794-1.4883-6.4837-3.0392-9.6113-4.6543-3.1276-1.6151-6.1777-3.2957-9.1484-5.041s-5.8631-3.5565-8.6719-5.4356-5.5342-3.8256-8.1758-5.8418c-2.6416-2.0162-5.1987-4.101-7.668-6.2578-2.4693-2.1568-4.8508-4.3848-7.1426-6.6856-2.2918-2.3008-4.4943-4.6748-6.6035-7.123s-4.1254-4.9711-6.0469-7.5703c-1.9214-2.5992-3.748-5.2758-5.4766-8.0293-1.7285-2.7535-3.3582-5.5847-4.8887-8.4961-0.25378-0.48276-0.46268-1.0011-0.71094-1.4883z" fill="#8b5e34"/>
   <path transform="scale(.26458)" d="m-138.37 513.97c0.24826 0.48715 0.45716 1.0055 0.71094 1.4883 1.5305 2.9114 3.1601 5.7426 4.8887 8.4961 1.7285 2.7536 3.5551 5.4301 5.4766 8.0293 1.9214 2.5992 3.9377 5.122 6.0469 7.5703s4.3117 4.8223 6.6035 7.123c2.2918 2.3008 4.6733 4.5288 7.1426 6.6856 2.4693 2.1568 5.0264 4.2416 7.668 6.2578 2.6416 2.0162 5.367 3.9627 8.1758 5.8418s5.7011 3.6902 8.6719 5.4356 6.0208 3.4259 9.1484 5.041c3.1276 1.6151 6.332 3.166 9.6113 4.6543 3.2794 1.4883 6.6327 2.9143 10.059 4.2793 6.8519 2.73 13.993 5.2154 21.4 7.4727 7.4073 2.2572 15.08 4.2855 23.002 6.0976 7.9215 1.8121 16.092 3.4082 24.486 4.8027 8.3946 1.3946 17.015 2.5872 25.842 3.5918 8.8265 1.0046 17.857 1.8208 27.074 2.4629 9.2171 0.64213 18.621 1.1107 28.188 1.418s19.297 0.45313 29.172 0.45313 19.605-0.14585 29.172-0.45313c9.5667-0.30728 18.97-0.77583 28.188-1.418 9.2171-0.64214 18.248-1.4583 27.074-2.4629 8.8265-1.0046 17.447-2.1972 25.842-3.5918s16.565-2.9906 24.486-4.8027c7.9215-1.8121 15.595-3.8404 23.002-6.0976 7.4073-2.2573 14.549-4.7427 21.4-7.4727 3.4259-1.365 6.7792-2.791 10.059-4.2793 3.2794-1.4883 6.4837-3.0392 9.6113-4.6543 3.1276-1.6151 6.1777-3.2956 9.1484-5.041 2.9708-1.7454 5.8631-3.5565 8.6719-5.4356 2.8087-1.879 5.5342-3.8256 8.1758-5.8418 2.6416-2.0162 5.1987-4.101 7.668-6.2578 2.4693-2.1568 4.8508-4.3848 7.1426-6.6856 2.2918-2.3008 4.4943-4.6748 6.6035-7.123s4.1254-4.9711 6.0469-7.5703c1.9214-2.5992 3.748-5.2758 5.4766-8.0293 1.7285-2.7535 3.3582-5.5847 4.8887-8.4961 0.25378-0.48276 0.46268-1.0011 0.71094-1.4883-41.364-127.71-157.72-279.13-263.37-279.13-105.64 0-222 151.42-263.37 279.13z" fill="#a47148"/>
  </g>
  <g fill="#8b5e34" stroke-width=".26458">
   <circle cx="6.7352" cy="90.177" r="3.7418" opacity=".84967"/>
   <circle cx="21.702" cy="77.455" r="3.3676" opacity=".84967"/>
   <circle cx="-.74835" cy="113.75" r="7.4835" opacity=".84967"/>
   <circle cx="-23.947" cy="131.34" r="5.6127" opacity=".84967"/>
   <circle cx="1.8709" cy="141.06" r="4.116" opacity=".84967"/>
   <circle cx="27.689" cy="113.38" r="5.9868" opacity=".84967"/>
   <circle cx="32.553" cy="92.048" r="7.1094" opacity=".84967"/>
   <circle cx="10.851" cy="129.84" r="2.6192" opacity=".84967"/>
   <circle cx="24.322" cy="142.19" r="8.2319" opacity=".84967"/>
   <circle cx="53.133" cy="126.85" r="9.3544" opacity=".84967"/>
   <circle cx="40.411" cy="141.81" r="3.3676" opacity=".84967"/>
   <circle cx="29.934" cy="126.85" r="2.9934" opacity=".84967"/>
   <circle cx="43.03" cy="108.51" r="3.3676" opacity=".84967"/>
   <circle cx="47.146" cy="78.951" r="4.116" opacity=".84967"/>
   <circle cx="57.623" cy="98.783" r="7.8577" opacity=".84967"/>
   <circle cx="76.332" cy="127.22" r="6.361" opacity=".84967"/>
   <circle cx="71.842" cy="114.5" r="3.3676" opacity=".84967"/>
   <circle cx="62.862" cy="145.93" r="5.2385" opacity=".84967"/>
   <circle cx="-16.838" cy="147.05" r="4.116" opacity=".84967"/>
   <circle cx="80.448" cy="144.06" r="4.116" opacity=".84967"/>
  </g>
  <g fill="#6f4518" stroke-width=".26458">
   <circle cx="-2.2451" cy="168.01" r="4.4901" opacity=".85"/>
   <circle cx="23.199" cy="173.62" r="2.6192" opacity=".85"/>
   <circle cx="46.024" cy="170.25" r="4.116" opacity=".85"/>
   <circle cx="63.236" cy="173.99" r="2.6192" opacity=".85"/>
   <circle cx="76.706" cy="162.39" r="3.3676" opacity=".85"/>
   <circle cx="-29.186" cy="158.65" r="3.7418" opacity=".85"/>
   <circle cx="87.183" cy="165.39" r="1.4967" opacity=".85"/>
  </g>
 </g>
</svg>
