<?xml version="1.0" encoding="UTF-8"?>
<svg width="84.94mm" height="131.37mm" version="1.1" viewBox="0 0 84.94 131.37" xmlns="http://www.w3.org/2000/svg" xmlns:cc="http://creativecommons.org/ns#" xmlns:dc="http://purl.org/dc/elements/1.1/" xmlns:rdf="http://www.w3.org/1999/02/22-rdf-syntax-ns#">
 <metadata>
  <rdf:RDF>
   <cc:Work rdf:about="">
    <dc:format>image/svg+xml</dc:format>
    <dc:type rdf:resource="http://purl.org/dc/dcmitype/StillImage"/>
    <dc:title/>
   </cc:Work>
  </rdf:RDF>
 </metadata>
 <g transform="translate(16.792 -65.547)">
  <path d="m25.665 65.547s45.857 74.177 42.285 93.696c-3.6477 19.934-14.512 37.676-42.285 37.676s-38.731-16.699-42.285-37.676c-3.3071-19.519 42.285-93.696 42.285-93.696z" fill="#0058ff" stroke-width=".35456"/>
  <path d="m25.665 70.841s42.474 66.643 37.855 83.88c-4.6955 17.524-12.991 33.729-37.855 33.729-24.864 0-32.926-15.331-37.855-33.729-4.6187-17.237 37.855-83.88 37.855-83.88z" fill="#00adff" stroke-width=".31741"/>
  <path d="m25.665 73.111s31.812 49.914 28.353 62.825c-3.5169 13.125-9.7302 25.262-28.353 25.262-18.623 0-24.661-11.483-28.353-25.262-3.4593-12.91 28.353-62.825 28.353-62.825z" fill="#38d8ff" stroke-width=".23774"/>
  <path d="m25.665 75.433s18.647 29.258 16.619 36.826c-2.0615 7.6935-5.7035 14.808-16.619 14.808s-14.455-6.7307-16.619-14.808c-2.0277-7.5676 16.619-36.826 16.619-36.826z" fill="#a3ecff" stroke-width=".13935"/>
  <path d="m-11.524 146.78c-0.34004 2.4178-0.33551 4.4931 0.09959 6.117 4.8299 18.025 12.728 33.046 37.089 33.046 24.36 0 32.488-15.877 37.089-33.046 0.4351-1.6238 0.43962-3.6986 0.09959-6.1164-0.03043 0.14177-0.06326 0.28058-0.09959 0.41618-4.6004 17.169-12.728 33.046-37.089 33.046-24.361 0-32.259-15.021-37.089-33.046-0.03638-0.13576-0.06914-0.27478-0.09959-0.41674z" fill="#fff" stroke-width=".31099"/>
  <path transform="scale(.26458)" d="m186.85 470.01c-16.926 55.881-45.699 105.62-114.51 116.86 7.3943 1.5489 15.576 2.377 24.666 2.377 61.925 0 82.585-40.358 94.279-84.002 2.1575-8.052 0.19116-20.434-4.4316-35.236z" fill="#fff" stroke-width=".79053"/>
  <g transform="rotate(-15 -21.769 110.52)" fill="#fff">
   <ellipse cx="35.719" cy="134.54" rx="3.175" ry="4.6302" stroke-width=".20208"/>
   <ellipse cx="35.719" cy="122.24" rx="2.4493" ry="3.5719" stroke-width=".15589"/>
   <ellipse cx="35.719" cy="111.92" rx="1.8143" ry="2.6458" stroke-width=".11547"/>
  </g>
 </g>
</svg>
